<?xml version="1.0" encoding="UTF-8"?><svg id="b" xmlns="http://www.w3.org/2000/svg" viewBox="0 0 509.94 63.48"><g id="c"><path d="m18.01,1.39h10.77c.72,0,1.3.58,1.3,1.3v10.77c0,.72-.58,1.3-1.3,1.3h-10.77c-.72,0-1.3-.58-1.3-1.3V2.69c0-.72.58-1.3,1.3-1.3Z" style="fill:#ff8e1d; stroke-width:0px;"/><path d="m34.06,1.39h10.77c.72,0,1.3.58,1.3,1.3v10.77c0,.72-.58,1.3-1.3,1.3h-10.77c-.72,0-1.3-.58-1.3-1.3V2.69c0-.72.58-1.3,1.3-1.3Z" style="fill:#ff8e1d; stroke-width:0px;"/><path d="m34.06,33.48h10.77c.72,0,1.3.58,1.3,1.3v10.77c0,.72-.58,1.3-1.3,1.3h-10.77c-.72,0-1.3-.58-1.3-1.3v-10.77c0-.72.58-1.3,1.3-1.3Z" style="fill:#ff8e1d; stroke-width:0px;"/><path d="m1.97,17.42h10.77c.72,0,1.3.58,1.3,1.3v10.77c0,.72-.58,1.3-1.3,1.3H1.97c-.72,0-1.3-.58-1.3-1.3v-10.77c0-.72.58-1.3,1.3-1.3Z" style="fill:#ff8e1d; stroke-width:0px;"/><path d="m18.01,17.42h10.77c.72,0,1.3.58,1.3,1.3v10.77c0,.72-.58,1.3-1.3,1.3h-10.77c-.72,0-1.3-.58-1.3-1.3v-10.77c0-.72.58-1.3,1.3-1.3Z" style="fill:#ff8e1d; stroke-width:0px;"/><path d="m1.97,33.48h10.77c.72,0,1.3.58,1.3,1.3v10.77c0,.72-.58,1.3-1.3,1.3H1.97c-.72,0-1.3-.58-1.3-1.3v-10.77c0-.72.58-1.3,1.3-1.3Z" style="fill:#ff8e1d; stroke-width:0px;"/><path d="m18.01,33.48h10.77c.72,0,1.3.58,1.3,1.3v10.77c0,.72-.58,1.3-1.3,1.3h-10.77c-.72,0-1.3-.58-1.3-1.3v-10.77c0-.72.58-1.3,1.3-1.3Z" style="fill:#ff8e1d; stroke-width:0px;"/><path d="m1.97,49.54h10.77c.72,0,1.3.58,1.3,1.3v10.77c0,.72-.58,1.3-1.3,1.3H1.97c-.72,0-1.3-.58-1.3-1.3v-10.77c0-.72.58-1.3,1.3-1.3Z" style="fill:#ff8e1d; stroke-width:0px;"/><path d="m18.01,49.54h10.77c.72,0,1.3.58,1.3,1.3v10.77c0,.72-.58,1.3-1.3,1.3h-10.77c-.72,0-1.3-.58-1.3-1.3v-10.77c0-.72.58-1.3,1.3-1.3Z" style="fill:#ff8e1d; stroke-width:0px;"/><path d="m14.71,8.08c0,4.06-3.29,7.35-7.35,7.35S0,12.13,0,8.08,3.29.72,7.35.72s7.35,3.29,7.35,7.36" style="fill:#020926; stroke-width:0px;"/><path d="m55.37,1.39h13.06v60.09h-13.06V1.39Z" style="fill:#020926; stroke-width:0px;"/><path d="m120.77,61.48c-3.74-6.88-7.79-13.67-12.14-20.38-4.35-6.7-8.99-13.03-13.9-18.99v39.37h-12.9V1.39h10.64c1.84,1.91,3.88,4.25,6.11,7.02,2.23,2.78,4.51,5.74,6.82,8.89,2.32,3.15,4.62,6.42,6.91,9.8,2.29,3.38,4.44,6.63,6.45,9.75V1.39h12.98v60.09h-10.97Z" style="fill:#020926; stroke-width:0px;"/><path d="m244.46,61.48c-3.74-6.88-7.79-13.67-12.14-20.38-4.35-6.7-8.99-13.03-13.9-18.99v39.37h-12.9V1.39h10.64c1.84,1.91,3.88,4.25,6.11,7.02,2.23,2.78,4.51,5.74,6.83,8.89,2.32,3.15,4.62,6.42,6.91,9.8,2.29,3.38,4.44,6.63,6.45,9.75V1.39h12.98v60.09h-10.97Z" style="fill:#020926; stroke-width:0px;"/><path d="m295.3,62.69c-9.44,0-16.62-2.72-21.56-8.15s-7.41-13.15-7.41-23.15c0-4.97.75-9.41,2.26-13.31s3.57-7.2,6.2-9.88c2.62-2.69,5.75-4.73,9.38-6.11,3.63-1.39,7.56-2.08,11.81-2.08,2.46,0,4.69.19,6.7.56,2.01.38,3.77.81,5.28,1.3,1.51.49,2.76,1,3.77,1.52,1.01.52,1.73.93,2.18,1.21l-3.77,10.93c-1.79-.98-3.87-1.82-6.24-2.51s-5.07-1.04-8.08-1.04c-2.01,0-3.98.35-5.9,1.04s-3.63,1.81-5.11,3.34-2.67,3.51-3.56,5.94c-.89,2.43-1.34,5.38-1.34,8.84,0,2.77.29,5.36.88,7.76.59,2.4,1.54,4.47,2.85,6.2,1.31,1.73,3.03,3.11,5.15,4.12,2.12,1.01,4.69,1.52,7.7,1.52,1.9,0,3.6-.12,5.11-.35,1.51-.23,2.85-.51,4.02-.82,1.17-.32,2.2-.68,3.1-1.08.89-.4,1.7-.78,2.43-1.13l3.6,10.84c-1.84,1.16-4.44,2.2-7.79,3.12-3.35.92-7.23,1.39-11.64,1.39Z" style="fill:#020926; stroke-width:0px;"/><path d="m323.1,61.48V1.39h39.19v11.36h-26.13v11.79h23.2v11.1h-23.2v14.48h28.05v11.36h-41.12Z" style="fill:#020926; stroke-width:0px;"/><path d="m373.85,1.39h13.06v60.09h-13.06V1.39Z" style="fill:#020926; stroke-width:0px;"/><path d="m417.31.69c8.71,0,15.38,1.6,20.02,4.81,4.63,3.21,6.95,8.19,6.95,14.96,0,4.22-.93,7.64-2.8,10.27-1.87,2.63-4.57,4.7-8.08,6.2,1.17,1.5,2.4,3.22,3.68,5.16,1.28,1.94,2.55,3.96,3.81,6.07,1.26,2.11,2.47,4.31,3.64,6.59,1.17,2.28,2.26,4.52,3.27,6.72h-14.6c-1.07-1.96-2.15-3.96-3.24-5.98-1.09-2.02-2.21-3.99-3.36-5.9-1.15-1.91-2.28-3.71-3.4-5.42-1.12-1.7-2.24-3.25-3.36-4.64h-6.45v21.94h-13.06V2.25c2.85-.58,5.79-.98,8.84-1.21,3.04-.23,5.76-.35,8.16-.35Zm.75,11.53c-.95,0-1.8.03-2.55.09-.75.06-1.47.12-2.14.17v16.3h3.68c4.91,0,8.43-.64,10.55-1.91,2.12-1.27,3.18-3.44,3.18-6.5s-1.08-5.04-3.22-6.29c-2.15-1.24-5.32-1.87-9.5-1.87Z" style="fill:#020926; stroke-width:0px;"/><path d="m509.94,31.39c0,5.15-.74,9.67-2.22,13.57-1.48,3.9-3.5,7.17-6.07,9.8-2.57,2.63-5.63,4.61-9.17,5.94-3.55,1.33-7.36,1.99-11.43,1.99s-7.7-.66-11.22-1.99c-3.52-1.33-6.59-3.31-9.21-5.94-2.62-2.63-4.69-5.9-6.2-9.8-1.51-3.9-2.26-8.42-2.26-13.57s.78-9.67,2.35-13.57c1.56-3.9,3.67-7.18,6.32-9.84,2.65-2.66,5.72-4.65,9.21-5.98,3.49-1.33,7.16-1.99,11.01-1.99s7.7.67,11.22,1.99c3.52,1.33,6.59,3.32,9.21,5.98,2.62,2.66,4.69,5.94,6.2,9.84s2.26,8.43,2.26,13.57Zm-44.3,0c0,2.95.35,5.61,1.05,7.98.7,2.37,1.7,4.41,3.01,6.11,1.31,1.71,2.92,3.02,4.82,3.95,1.9.93,4.07,1.39,6.53,1.39s4.56-.46,6.49-1.39c1.93-.92,3.55-2.24,4.86-3.95,1.31-1.7,2.32-3.74,3.01-6.11.7-2.37,1.05-5.03,1.05-7.98s-.35-5.62-1.05-8.02c-.7-2.4-1.7-4.45-3.01-6.16-1.31-1.7-2.93-3.02-4.86-3.95-1.93-.92-4.09-1.39-6.49-1.39s-4.64.48-6.53,1.43c-1.9.95-3.5,2.28-4.82,3.99s-2.32,3.76-3.01,6.16c-.7,2.4-1.05,5.04-1.05,7.93Z" style="fill:#020926; stroke-width:0px;"/><path d="m191.84,45.53c-1.96-5.49-3.88-10.66-5.76-15.52-1.88-4.86-3.74-9.47-5.59-13.83-1.85-4.36-3.73-8.63-5.64-12.79h-12.38c-1.96,4.16-3.85,8.43-5.67,12.79-1.82,4.37-3.67,8.97-5.54,13.83-1.88,4.86-3.79,10.03-5.75,15.52-1.96,5.49-4.03,11.48-6.22,17.95h13.57s3.56-13.12,7.37-25.76h-.14c.32-.9.63-1.77.94-2.64,2.93-9.56,5.88-18.28,7.36-20.08,3.56-4.31,15.7,48.48,15.7,48.48h13.99c-2.19-6.47-4.26-12.46-6.23-17.95Z" style="fill:#020926; stroke-width:0px;"/><polygon points="198.94 22.69 189.92 22.69 193.33 26.18 174.7 46.24 151.4 28.95 133.19 48.73 135.41 50.77 151.78 32.97 175.07 50.26 195.49 28.26 198.94 31.71 198.94 22.69" style="fill:#fd7014; stroke-width:0px;"/></g></svg>